<svg xmlns="http://www.w3.org/2000/svg" id="Layer_1" data-name="Layer 1" viewBox="0 0 62.19 62.19"><defs><style>.cls-1{fill:#333;}</style></defs><title>assets</title><path className="cls-1" d="M31.1,62.19a31.1,31.1,0,1,1,31.1-31.1A31.13,31.13,0,0,1,31.1,62.19Zm0-58.67A27.57,27.57,0,1,0,58.67,31.1,27.6,27.6,0,0,0,31.1,3.53Z"/><path className="cls-1" d="M35.93,34.64h5.76c2.72,0,4.23,1.59,4.23,3.43a2.67,2.67,0,0,1-1.8,2.72,3.46,3.46,0,0,1,2.83,3.65c0,2.51-1.9,4-4.86,4H35.93Zm5.44,5a1,1,0,0,0,1.08-1.08,1,1,0,0,0-1.08-1h-2v2.11Zm.48,5.79a1.45,1.45,0,0,0,1.56-1.53,1.47,1.47,0,0,0-1.56-1.56H39.39v3.09Z"/><rect className="cls-1" x="11.44" y="30.51" width="39.31" height="1.18" transform="translate(-12.88 31.1) rotate(-45)"/><path className="cls-1" d="M21.11,29.48a7.13,7.13,0,1,1,7.13-7.13A7.14,7.14,0,0,1,21.11,29.48Zm0-10.88a3.75,3.75,0,1,0,3.75,3.75A3.75,3.75,0,0,0,21.11,18.59Z"/></svg>
